<?xml version="1.0" standalone="no"?>
<!DOCTYPE svg PUBLIC "-//W3C//DTD SVG 20010904//EN"
 "http://www.w3.org/TR/2001/REC-SVG-20010904/DTD/svg10.dtd">
<svg version="1.0" xmlns="http://www.w3.org/2000/svg"
 width="260.000000pt" height="260.000000pt" viewBox="0 0 260.000000 260.000000"
 preserveAspectRatio="xMidYMid meet">
<metadata>
Created by potrace 1.11, written by Peter Selinger 2001-2013
</metadata>
<g transform="translate(0.000000,260.000000) scale(0.100000,-0.100000)"
fill="#000000" stroke="none">
<path d="M0 1300 l0 -1300 1300 0 1300 0 0 1300 0 1300 -1300 0 -1300 0 0
-1300z m1701 895 c39 -21 69 -71 69 -117 0 -38 -31 -132 -68 -203 -11 -22 -94
-209 -182 -415 -288 -666 -372 -859 -432 -987 -23 -50 -59 -73 -113 -73 -94 0
-159 86 -135 180 4 19 68 170 140 335 127 287 205 466 429 985 56 129 110 243
119 254 48 54 116 70 173 41z"/>
</g>
</svg>
